<svg xmlns="http://www.w3.org/2000/svg" width="296.97" height="100" viewBox="0 0 296.97 100"><defs><style>.a,.b,.d{fill:none;}.a{stroke:#fc5c7d;}.b{stroke:#5cf6fc;}.c{fill:#6a82fb;}.d{stroke:#fffde4;}.e{fill:#fc5c7d;}</style></defs><g transform="translate(-39.53 -642)"><path class="a" d="M-1341.811,280.628l14.532-4.232v12.087" transform="translate(1663.279 397.604)"/><path class="b" d="M-1613,291.675l6.5-3.675,6.5,3.675,6.5-3.675,6.5,3.675" transform="matrix(0.848, -0.53, 0.53, 0.848, 1503.285, -390.334)"/><path class="b" d="M-1613,299.347-1597.88,288l15.12,11.347,15.12-11.347,15.12,11.347" transform="translate(1670.04 881.646) rotate(17)"/><circle class="c" cx="8" cy="8" r="8" transform="translate(63 642)"/><path class="d" d="M-1509,623.581l8.076-9.43,6.15,8.171" transform="matrix(0.719, -0.695, 0.695, 0.719, 785.949, -806.113)"/><circle class="e" cx="11.5" cy="11.5" r="11.5" transform="translate(211 719)"/></g></svg>