<svg xmlns="http://www.w3.org/2000/svg" xmlns:xlink="http://www.w3.org/1999/xlink" width="551.264" height="300.206" viewBox="0 0 551.264 300.206">
  <defs>
    <linearGradient id="linear-gradient" x1="0.563" x2="0.575" y2="0.908" gradientUnits="objectBoundingBox">
      <stop offset="0" stop-color="#ffecad"/>
      <stop offset="0.483" stop-color="#f6f4a1"/>
      <stop offset="1" stop-color="#eaff91"/>
    </linearGradient>
    <clipPath id="clip-path">
      <path id="Path_30" data-name="Path 30" d="M1054.326,280.865V241h352.642l-62.132,51.785h-290.51Z" transform="translate(-1082 7.104)" fill="#a1d8fc" stroke="#000" stroke-width="1"/>
    </clipPath>
  </defs>
  <g id="Group_24" data-name="Group 24" transform="translate(73)">
    <g id="Rectangle_18" data-name="Rectangle 18" stroke="#707070" stroke-width="1" fill="url(#linear-gradient)">
      <rect width="375" height="275" stroke="none"/>
      <rect x="0.5" y="0.5" width="374" height="274" fill="none"/>
    </g>
    <path id="Polygon_12" data-name="Polygon 12" d="M119,0,238,88H0Z" transform="translate(76 170)" fill="#ff8da4" opacity="0.842"/>
    <path id="Path_26" data-name="Path 26" d="M144,0,288,124.9H0Z" transform="translate(-73 152)" fill="#ff5377"/>
    <path id="Polygon_6" data-name="Polygon 6" d="M77.5,0,155,67H0Z" transform="translate(5 206)" fill="#ff365f"/>
    <path id="Path_29" data-name="Path 29" d="M109.374,1.812,211,76.361H0Z" transform="translate(76 196.639)" fill="#f47062"/>
    <path id="Path_27" data-name="Path 27" d="M140.272,21.346,281,116H0Z" transform="translate(131 157)" fill="#f47062"/>
    <path id="Path_16" data-name="Path 16" d="M182.864,12.594,307.223,120.675,53.959,117.757Z" transform="translate(171.041 148)" fill="#fc5c7d"/>
    <path id="river_" data-name="river " d="M1274,247.359s40.049-24.528,86.677,0,100.121,0,100.121,0,52.735-23.259,100.367,0,115.973-24.491,115.973-24.491l-25.745-13.912s-35.264,25.789-90.229,13.912-76.044-10.737-110.994,0-37.581,16.2-80.772,0-95.4,0-95.4,0Z" transform="translate(-1274 41.397)" fill="#fffde4" stroke="#000" stroke-width="1"/>
    <circle id="Ellipse_3" data-name="Ellipse 3" cx="20.5" cy="20.5" r="20.5" transform="translate(31 60)" fill="#ff0"/>
    <text id="_08:45" data-name="08:45" transform="translate(264 58)" font-size="28" font-family="Hind-Medium, Hind" font-weight="500" letter-spacing="0.12em"><tspan x="0" y="0">08:45</tspan></text>
    <g id="Mask_Group_1" data-name="Mask Group 1" clip-path="url(#clip-path)">
      <path id="river_overlay" data-name="river overlay" d="M1274,247.359s40.049-24.528,86.677,0,100.121,0,100.121,0,52.735-23.259,100.367,0,115.973-24.491,115.973-24.491l-25.745-13.912s-35.264,25.789-90.229,13.912-76.044-10.737-110.994,0-37.581,16.2-80.772,0-95.4,0-95.4,0Z" transform="translate(-1274 41.397)" fill="#a1d8fc" stroke="#000" stroke-width="1"/>
      <path id="Path_31" data-name="Path 31" d="M1287,260.9s3.6-3.664,11.931-1.777,11.835,0,11.835,0,7.12-2.969,12.256,0" transform="translate(-1274 5)" fill="none" stroke="#000" stroke-linecap="round" stroke-width="1"/>
      <path id="Path_32" data-name="Path 32" d="M1287,260.9s3.6-3.664,11.931-1.777,11.835,0,11.835,0,7.12-2.969,12.256,0" transform="translate(-1017.665 -143.108) rotate(7)" fill="none" stroke="#000" stroke-linecap="round" stroke-width="1"/>
      <path id="Path_33" data-name="Path 33" d="M1287,261.458s2.424-4.321,8.023-2.1,7.959,0,7.959,0,4.788-3.5,8.242,0" transform="matrix(0.978, 0.208, -0.208, 0.978, -1090.631, -231.427)" fill="none" stroke="#000" stroke-linecap="round" stroke-width="1"/>
      <path id="Path_34" data-name="Path 34" d="M1312.983,270.807s4.932-4.2,10.222-1.318a11.436,11.436,0,0,0,11.471-.468" transform="translate(-1274)" fill="none" stroke="#000" stroke-linecap="round" stroke-width="1"/>
      <path id="Path_35" data-name="Path 35" d="M1312.983,270.807s4.932-4.2,10.222-1.318a11.436,11.436,0,0,0,11.471-.468" transform="translate(-1101 -4)" fill="none" stroke="#000" stroke-linecap="round" stroke-width="1"/>
      <path id="Path_36" data-name="Path 36" d="M1312.983,273.118s7.734-8.364,16.03-2.628,15.956.743,17.987-.932" transform="matrix(0.995, 0.105, -0.105, 0.995, -1163.405, -124.538)" fill="none" stroke="#000" stroke-linecap="round" stroke-width="1"/>
      <path id="Path_37" data-name="Path 37" d="M1316.48,250a3.663,3.663,0,0,1,4.146.633c1.928,1.825,5.765.72,5.765.72" transform="translate(-1007 25)" fill="none" stroke="#000" stroke-width="1"/>
    </g>
  </g>
</svg>
