<?xml version="1.0" encoding="UTF-8" standalone="no"?><!DOCTYPE svg PUBLIC "-//W3C//DTD SVG 1.1//EN" "http://www.w3.org/Graphics/SVG/1.1/DTD/svg11.dtd"><svg width="100%" height="100%" viewBox="0 0 383 406" version="1.1" xmlns="http://www.w3.org/2000/svg" xmlns:xlink="http://www.w3.org/1999/xlink" xml:space="preserve" xmlns:serif="http://www.serif.com/" style="fill-rule:evenodd;clip-rule:evenodd;stroke-linecap:round;stroke-linejoin:round;stroke-miterlimit:1.5;"><path id="background" d="M381.667,0l-375,0l0,367.667c62.789,-11.476 125.19,-1.267 187.5,14c62.516,-15.582 125.022,-32.175 187.5,-22.334l0,-359.333Z" style="fill:url(#_Linear1);"/><g id="mountains"><path d="M3.333,288.881l21.628,-21.628l21.628,21.628l35.295,-35.295l35.294,35.295l0,56.907l-113.845,0l0,-56.907Z" style="fill:#852e41;"/><path d="M208.007,275.483l-39.055,-41.109l-62.793,66.098l-46.946,-49.416l-59.213,62.329l0,39.615l213.667,18.667l-5.66,-96.184Z" style="fill:#a73a52;"/><path d="M285.667,273.932l44.245,-44.245l22.495,22.495l0,27.303l-66.74,-5.553Z" style="fill:#852e41;"/><path d="M6.667,336.113l44.868,-44.869l18.715,18.715l56.382,-56.382l40,40l102.744,-102.744l72.411,72.411l39.88,-39.88l0,132.213l-218.834,32l-53.916,-32l-102.25,0l0,-19.464Z" style="fill:#c24e68;"/></g><g id="rivers"><path id="river-front" d="M6.667,352.946c0,0 89.476,-13.536 108.666,1.119c28.343,21.645 25.806,22.304 69.5,22.812c88.015,1.022 57.438,-31.825 111.834,-20.359c39.338,8.292 81.858,-7.981 85,-17.072l0,26.001c-3.201,12.198 -78.938,20.066 -88.334,13.216c-9.085,-6.624 -49.674,12.73 -71,18.93c-26.313,7.651 -75.493,15.725 -110.333,-11.43c-34.84,-27.154 -105.333,-5.714 -105.333,-5.714l0,-27.503Z" style="fill:#fffde4;stroke:#000;stroke-width:1px;"/><path id="river-front1" serif:id="river-front" d="M6.667,352.946c0,0 89.476,-13.536 108.666,1.119c28.343,21.645 25.806,22.304 69.5,22.812c88.015,1.022 57.438,-31.825 111.834,-20.359c39.338,8.292 81.858,-7.981 85,-17.072l0,26.001c-3.201,12.198 -78.938,20.066 -88.334,13.216c-9.085,-6.624 -49.674,12.73 -71,18.93c-26.313,7.651 -75.493,15.725 -110.333,-11.43c-34.84,-27.154 -105.333,-5.714 -105.333,-5.714l0,-27.503Z" style="fill:#a6c6ff;stroke:#000;stroke-width:1px;"/><g id="river-flow-lines" opacity="0.52"><path d="M47.923,358.619c0,0 8.931,-3.402 10.828,-0.431c1.898,2.97 9.689,1.265 14.916,0.862" style="fill:none;stroke:#000;stroke-width:1px;"/><path d="M64.667,367.244c5.939,0.319 4.6,-1.733 9,0c4.4,1.733 6.046,1.601 8.333,1.667" style="fill:none;stroke:#000;stroke-width:1px;"/><path d="M158.2,383.37c-0.491,0 0.923,-0.335 1.388,-0.492c0.779,-0.263 2.141,-0.447 2.973,-0.188c1.133,0.353 2.878,1.378 4.253,0.898c1.076,-0.376 2.732,-0.87 3.969,-0.485c0.53,0.165 0.853,0.596 1.421,0.596" style="fill:none;stroke:#000;stroke-width:1px;"/><path d="M166.227,386.875c-0.087,0 0.495,0.015 0.556,0c0.232,-0.059 1.244,-0.579 1.506,-0.317c1.175,1.175 2.169,0.492 3.886,0.492" style="fill:none;stroke:#000;stroke-width:1px;"/><path d="M223.869,390.061c1.819,0 3.635,-2.591 5.716,-2.854c2.493,-0.314 5.503,0.548 7.931,-0.067c1.644,-0.417 3.396,-2.024 4.959,-2.812c1.818,-0.916 3.731,-0.245 5.583,-0.712" style="fill:none;stroke:#000;stroke-width:1px;"/><path d="M231.731,384.607c0,-0.091 0.7,-0.132 0.857,-0.191c1.015,-0.386 2.176,-0.864 3.263,-1.001c1.584,-0.199 3.501,0.33 5.046,-0.061c1.076,-0.273 1.78,-1.311 2.896,-1.545c1.736,-0.364 3.556,-0.074 5.288,-0.074" style="fill:none;stroke:#000;stroke-width:1px;"/><path d="M228.196,382.585c0.907,0 3.179,0.254 4.039,-0.182c1.875,-0.952 2.972,-1.573 5.244,-1.573" style="fill:none;stroke:#000;stroke-width:1px;"/><path d="M288.326,362.537c2.497,0 4.782,-1.694 7.479,-1.186c0.674,0.127 1.086,0.671 1.788,0.846c2.896,0.724 6.167,-0.619 9.104,-0.129c1.342,0.223 2.395,1.424 3.738,1.76c0.886,0.221 1.932,-0.171 2.758,-0.171" style="fill:none;stroke:#000;stroke-width:1px;"/><path d="M299.515,365.387c0,-0.041 3.373,-0.252 3.803,-0.252c0.955,0 1.559,0.605 2.363,0.853c1.505,0.463 3.147,-0.094 4.652,-0.094c1.218,0 2.342,0.48 3.609,0.48" style="fill:none;stroke:#000;stroke-width:1px;"/><path d="M359.278,371.701c0,-0.092 0.408,-0.023 0.479,-0.095c0.254,-0.258 0.854,-0.605 1.245,-0.728c0.566,-0.179 2.218,0.325 2.59,-0.052c1.008,-1.025 2.01,-0.818 3.552,-1.338" style="fill:none;stroke:#000;stroke-width:1px;"/><path d="M375.773,349.287c0,-0.979 1.601,-0.657 2.091,-1.155" style="fill:none;stroke:#000;stroke-width:1px;"/><path d="M364.557,356.6c0.974,0 1.542,-0.663 2.286,-0.663" style="fill:none;stroke:#000;stroke-width:1px;"/></g></g><circle id="sun" cx="70.25" cy="91.161" r="31.917" style="fill:#f5ee09;"/><text id="time" x="253.165px" y="86.577px" style="font-family:'Hind-Regular', 'Hind';font-size:34.542px;">08:00</text><defs><linearGradient id="_Linear1" x1="0" y1="0" x2="1" y2="0" gradientUnits="userSpaceOnUse" gradientTransform="matrix(8.7212e-14,-307.868,307.868,8.7212e-14,194.167,336.113)"><stop offset="0" style="stop-color:#fff872;stop-opacity:1"/><stop offset="1" style="stop-color:#fff3a7;stop-opacity:1"/></linearGradient></defs></svg>